<svg width="112" height="157" viewBox="0 0 112 157" fill="none" xmlns="http://www.w3.org/2000/svg">
<path d="M19 6.32434H44C52.5234 7.93131 54.9317 10.8895 56 18.973V137.554C55.8226 145.554 58.3105 148.407 68 150.203H94.5" stroke="#5782FF" stroke-width="7" stroke-dasharray="6 6"/>
<mask id="path-2-inside-1_155_121" fill="white">
<ellipse cx="6" cy="6.32432" rx="6" ry="6.32432"/>
</mask>
<ellipse cx="6" cy="6.32432" rx="6" ry="6.32432" fill="#50AE3E"/>
<path d="M5 6.32432C5 6.25731 5.03056 6.11954 5.16439 5.97847C5.30431 5.83099 5.60121 5.64865 6 5.64865V19.6486C13.5224 19.6486 19 13.3313 19 6.32432H5ZM6 5.64865C6.39879 5.64865 6.69569 5.83099 6.83561 5.97847C6.96944 6.11954 7 6.25731 7 6.32432H-7C-7 13.3313 -1.52236 19.6486 6 19.6486V5.64865ZM7 6.32432C7 6.39133 6.96944 6.52911 6.83561 6.67017C6.69569 6.81765 6.39879 7 6 7V-7C-1.52236 -7 -7 -0.682699 -7 6.32432H7ZM6 7C5.60121 7 5.30431 6.81765 5.16439 6.67017C5.03056 6.52911 5 6.39133 5 6.32432H19C19 -0.682699 13.5224 -7 6 -7V7Z" fill="#5782FF" mask="url(#path-2-inside-1_155_121)"/>
<mask id="path-4-inside-2_155_121" fill="white">
<ellipse cx="106" cy="150.324" rx="6" ry="6.32432"/>
</mask>
<ellipse cx="106" cy="150.324" rx="6" ry="6.32432" fill="#50AE3E"/>
<path d="M105 150.324C105 150.257 105.031 150.12 105.164 149.978C105.304 149.831 105.601 149.649 106 149.649V163.649C113.522 163.649 119 157.331 119 150.324H105ZM106 149.649C106.399 149.649 106.696 149.831 106.836 149.978C106.969 150.12 107 150.257 107 150.324H93C93 157.331 98.4776 163.649 106 163.649V149.649ZM107 150.324C107 150.391 106.969 150.529 106.836 150.67C106.696 150.818 106.399 151 106 151V137C98.4776 137 93 143.317 93 150.324H107ZM106 151C105.601 151 105.304 150.818 105.164 150.67C105.031 150.529 105 150.391 105 150.324H119C119 143.317 113.522 137 106 137V151Z" fill="#5782FF" mask="url(#path-4-inside-2_155_121)"/>
</svg>
