<svg width="273" height="273" viewBox="0 0 273 273" fill="none" xmlns="http://www.w3.org/2000/svg">
<rect width="273" height="273" rx="136.5" fill="#161824"/>
<path d="M56.9209 184L56.4209 90.4038L79.4209 72V166.122L56.9209 184Z" fill="url(#paint0_linear_51_2)"/>
<path d="M179.446 121L119.222 73.855L139.421 59.5L179.446 91L179.446 121Z" fill="url(#paint1_linear_51_2)"/>
<path d="M155.997 102.594L56.964 182.477L57.8695 218.123L179.469 120.586L155.997 102.594Z" fill="url(#paint2_linear_51_2)"/>
<path d="M79.4209 105V72L118.421 43L139.421 59.5L79.4209 105Z" fill="url(#paint3_linear_51_2)"/>
<path d="M180.421 199L129.421 160.5L129.921 160L152.796 142L180.421 163.841V199Z" fill="url(#paint4_linear_51_2)"/>
<line x1="180.921" y1="90" x2="180.921" y2="201" stroke="#11182D"/>
<path d="M181.421 199.326V43.5335L181.921 43L210.421 60.9348V218L181.421 199.326Z" fill="url(#paint5_linear_51_2)"/>
<path d="M236.421 202.783L210.421 218V183L236.421 202.783Z" fill="url(#paint6_linear_51_2)"/>
<path d="M153.421 58.5L181.921 43V81L153.421 58.5Z" fill="url(#paint7_linear_51_2)"/>
<path d="M104 122L114.938 102H118L106.953 122H104Z" fill="url(#paint8_linear_51_2)" stroke="black"/>
<path d="M102 107.068V104L93 109.479L93.2308 112L102 107.068Z" fill="url(#paint9_linear_51_2)" stroke="black"/>
<path d="M102 113.672L95.64 110L93 111.492L102 117V113.672Z" fill="url(#paint10_linear_51_2)" stroke="black"/>
<path d="M120 104V106.8L126.078 110L129 108.9L120 104Z" fill="url(#paint11_linear_51_2)" stroke="black"/>
<path d="M120 117V113.889L126 110.333L128.885 109L129 111.556L120 117Z" fill="url(#paint12_linear_51_2)" stroke="black"/>
<defs>
<linearGradient id="paint0_linear_51_2" x1="59.9209" y1="177.164" x2="81.9586" y2="72.5345" gradientUnits="userSpaceOnUse">
<stop stop-color="#6708FF"/>
<stop offset="1" stop-color="#54A1FF"/>
</linearGradient>
<linearGradient id="paint1_linear_51_2" x1="122.648" y1="75.037" x2="180.585" y2="89.3341" gradientUnits="userSpaceOnUse">
<stop stop-color="#6707FF"/>
<stop offset="1" stop-color="#54A1FF"/>
</linearGradient>
<linearGradient id="paint2_linear_51_2" x1="179.443" y1="119.582" x2="55.3969" y2="181.952" gradientUnits="userSpaceOnUse">
<stop stop-color="#6703FF"/>
<stop offset="1" stop-color="#53A1FF"/>
</linearGradient>
<linearGradient id="paint3_linear_51_2" x1="81.4209" y1="101.5" x2="121.421" y2="43" gradientUnits="userSpaceOnUse">
<stop stop-color="#6809FF"/>
<stop offset="1" stop-color="#54A1FF"/>
</linearGradient>
<linearGradient id="paint4_linear_51_2" x1="132.754" y1="159.047" x2="180.437" y2="170.934" gradientUnits="userSpaceOnUse">
<stop stop-color="#6808FF"/>
<stop offset="1" stop-color="#55A1FF"/>
</linearGradient>
<linearGradient id="paint5_linear_51_2" x1="183.921" y1="46.2012" x2="213.985" y2="217.374" gradientUnits="userSpaceOnUse">
<stop stop-color="#6706FF"/>
<stop offset="1" stop-color="#55A1FF"/>
</linearGradient>
<linearGradient id="paint6_linear_51_2" x1="210.921" y1="184.014" x2="225.233" y2="209.71" gradientUnits="userSpaceOnUse">
<stop stop-color="#6707FF"/>
<stop offset="1" stop-color="#55A1FF"/>
</linearGradient>
<linearGradient id="paint7_linear_51_2" x1="181.921" y1="75" x2="168.421" y2="50" gradientUnits="userSpaceOnUse">
<stop stop-color="#6706FF"/>
<stop offset="1" stop-color="#56A1FF"/>
</linearGradient>
<linearGradient id="paint8_linear_51_2" x1="111" y1="102" x2="111" y2="122" gradientUnits="userSpaceOnUse">
<stop stop-color="#6709FF"/>
<stop offset="1" stop-color="#549AFF"/>
</linearGradient>
<linearGradient id="paint9_linear_51_2" x1="93.2308" y1="112" x2="101.481" y2="104.125" gradientUnits="userSpaceOnUse">
<stop stop-color="#539FFF"/>
<stop offset="1" stop-color="#6608FF"/>
</linearGradient>
<linearGradient id="paint10_linear_51_2" x1="93.24" y1="111.492" x2="101.938" y2="114.108" gradientUnits="userSpaceOnUse">
<stop stop-color="#6709FF"/>
<stop offset="1" stop-color="#5499FF"/>
</linearGradient>
<linearGradient id="paint11_linear_51_2" x1="128.649" y1="108.9" x2="120.369" y2="105.983" gradientUnits="userSpaceOnUse">
<stop stop-color="#670BFF"/>
<stop offset="1" stop-color="#5596FF"/>
</linearGradient>
<linearGradient id="paint12_linear_51_2" x1="124.5" y1="109" x2="124.5" y2="117" gradientUnits="userSpaceOnUse">
<stop stop-color="#670BFF"/>
<stop offset="1" stop-color="#5599FF"/>
</linearGradient>
</defs>
</svg>
