<svg width="65" height="176" viewBox="0 0 65 176" fill="none" xmlns="http://www.w3.org/2000/svg">
<path d="M64.6934 8.78325V0.0114645C36.379 -0.264481 26.7405 4.33899 25.7547 24.9233C25.7954 53.0191 25.8969 69.7533 23.9151 72.6419C20.5228 81.78 14.3986 83.3337 0 83.168V93.3433C16.905 93.1195 23.4124 95.6174 25.1415 108.782L25.7547 151.588C27.0811 172.051 35.9278 177.145 65 175.798V166.675C48.8673 167.947 41.8984 166.431 40.7783 151.588L39.2453 102.817C35.4701 93.6343 31.307 90.7825 22.3821 87.3785C22.3821 87.3785 36.117 83.8872 39.2453 72.6419C42.3736 61.3965 38.6321 29.4846 42.6179 16.8532C44.4575 11.0234 52.4292 8.78325 64.6934 8.78325Z" fill="url(#paint0_linear_155_15)"/>
<defs>
<linearGradient id="paint0_linear_155_15" x1="62.7586" y1="173.115" x2="28.7441" y2="-18.6686" gradientUnits="userSpaceOnUse">
<stop stop-color="#6700FF"/>
<stop offset="1" stop-color="#4FBBFF"/>
</linearGradient>
</defs>
</svg>
